<?xml version="1.0" encoding="utf-8"?>
<!-- Generator: Adobe Illustrator 22.1.0, SVG Export Plug-In . SVG Version: 6.00 Build 0)  -->
<svg version="1.1" id="Layer_1" xmlns="http://www.w3.org/2000/svg" xmlns:xlink="http://www.w3.org/1999/xlink" x="0px" y="0px"
	 viewBox="0 0 155 51" style="enable-background:new 0 0 155 51;" xml:space="preserve">
<style type="text/css">
	.st0{fill:#A6CE39;}
	.st1{fill:#FFFFFF;}
</style>
<g>
	<g>
		<path class="st0" d="M132.6,14.5l3.5-5.4c0.3-0.5,1-0.7,1.5-0.3l1.7-2.7c-2-1.3-4.7-0.7-5.9,1.3l-5.3,8.4c1.1-0.7,2.4-1.1,3.8-1.2
			C132.1,14.5,132.3,14.5,132.6,14.5z"/>
		<path class="st0" d="M141.4,12.4c0.3-0.5,1-0.7,1.5-0.3l1.7-2.7c-0.8-0.5-1.8-0.7-2.8-0.6c-0.3-1-0.9-1.7-1.8-2.2l-1.7,2.7
			c0.5,0.3,0.7,1,0.3,1.5l-2.8,4.4c1,0.4,1.9,1,2.7,1.7L141.4,12.4z"/>
		<path class="st0" d="M145.5,9.9l-1.7,2.7c0.5,0.3,0.7,1,0.3,1.5l-3.5,5.5c0.4,0.9,0.7,1.9,0.8,3c0.1,0.6,0,1.2,0,1.8l5.4-8.5
			C148.1,13.9,147.5,11.2,145.5,9.9z"/>
	</g>
	<g>
		<path class="st0" d="M67.8,26.2c0,0.4-0.1,0.8-0.2,1.1c-0.2,0.3-0.3,0.5-0.6,0.7c-0.2,0.2-0.5,0.3-0.7,0.4
			c-0.3,0.1-0.5,0.1-0.7,0.1c-0.3,0-0.6-0.1-0.8-0.2c-0.3-0.1-0.5-0.3-0.6-0.6c-0.2-0.3-0.2-0.6-0.2-1.1c0-0.5,0.1-0.9,0.3-1.2
			c0.2-0.3,0.5-0.6,0.9-0.7c0.4-0.2,0.8-0.3,1.3-0.4c0.5-0.1,1-0.1,1.5-0.1V26.2z M71.3,22.7c0-0.8-0.1-1.5-0.2-2.1
			c-0.2-0.7-0.5-1.3-0.9-1.8c-0.4-0.5-1-0.9-1.7-1.3C67.8,17.2,67,17,65.9,17c-0.7,0-1.4,0.1-2,0.2c-0.6,0.1-1.1,0.3-1.6,0.4
			c-0.5,0.2-0.8,0.4-1.2,0.5l0.7,2.4c0.4-0.3,1-0.5,1.5-0.7c0.6-0.2,1.2-0.3,1.8-0.3c0.7,0,1.2,0.1,1.5,0.3c0.4,0.2,0.6,0.5,0.7,0.8
			c0.1,0.4,0.2,0.8,0.2,1.2c-1.1,0-2.1,0.1-3,0.3c-0.9,0.2-1.7,0.5-2.4,0.9c-0.7,0.4-1.2,1-1.5,1.6c-0.4,0.6-0.6,1.4-0.6,2.3
			c0,0.6,0.1,1.1,0.3,1.6c0.2,0.5,0.5,0.9,0.8,1.3c0.4,0.4,0.8,0.7,1.3,0.9c0.5,0.2,1.1,0.3,1.7,0.3c0.5,0,1-0.1,1.4-0.2
			c0.5-0.1,0.9-0.3,1.2-0.6c0.4-0.3,0.7-0.6,1-0.9H68l0.2,1.4h3.3c0-0.3-0.1-0.6-0.1-0.9c0-0.3,0-0.7-0.1-1.1c0-0.4,0-0.8,0-1.2
			V22.7z M58.9,17.3h-3.6v13.7h3.6V17.3z M59,13.5c0-0.4-0.1-0.7-0.2-1c-0.2-0.3-0.4-0.5-0.7-0.7c-0.3-0.2-0.6-0.2-1-0.2
			c-0.4,0-0.7,0.1-1,0.2c-0.3,0.2-0.5,0.4-0.7,0.7c-0.2,0.3-0.2,0.6-0.3,1c0,0.4,0.1,0.7,0.2,1c0.2,0.3,0.4,0.5,0.7,0.7
			c0.3,0.2,0.6,0.3,1,0.3c0.4,0,0.7-0.1,1-0.2c0.3-0.2,0.5-0.4,0.7-0.7C58.9,14.3,59,13.9,59,13.5z M49.3,25.3c0,0.5-0.1,1-0.2,1.4
			c-0.2,0.4-0.3,0.7-0.6,0.9c-0.2,0.2-0.5,0.4-0.8,0.5c-0.3,0.1-0.6,0.2-0.8,0.2c-0.6,0-1.1-0.2-1.5-0.5c-0.4-0.3-0.7-0.8-0.9-1.4
			c-0.2-0.6-0.3-1.3-0.3-2.2c0-0.6,0.1-1.2,0.2-1.7c0.1-0.5,0.3-1,0.5-1.4c0.2-0.4,0.5-0.7,0.9-0.9c0.3-0.2,0.8-0.3,1.2-0.3
			c0.3,0,0.6,0.1,0.9,0.2c0.3,0.1,0.5,0.3,0.8,0.6c0.2,0.2,0.4,0.6,0.5,0.9c0.1,0.4,0.2,0.8,0.2,1.3V25.3z M52.9,11.2h-3.6v7.4h0
			c-0.2-0.3-0.4-0.6-0.7-0.8c-0.3-0.2-0.7-0.4-1.1-0.6C47,17.1,46.5,17,46,17c-0.7,0-1.4,0.2-2.1,0.5c-0.7,0.3-1.2,0.8-1.8,1.4
			c-0.5,0.6-0.9,1.4-1.2,2.3c-0.3,0.9-0.4,1.9-0.4,3.1c0,1,0.1,2,0.4,2.8c0.3,0.9,0.6,1.6,1.1,2.2c0.5,0.6,1,1.1,1.7,1.4
			c0.6,0.3,1.4,0.5,2.1,0.5c0.6,0,1.1-0.1,1.6-0.3c0.5-0.2,0.9-0.4,1.3-0.8c0.4-0.3,0.7-0.7,0.9-1.2h0.1l0.2,1.9H53
			c0-0.3,0-0.7,0-1.2c0-0.4,0-0.9,0-1.3c0-0.5,0-0.9,0-1.4V11.2z M31.4,22.7c0-0.3,0.1-0.7,0.2-1.1c0.1-0.4,0.3-0.7,0.5-1
			c0.2-0.3,0.5-0.6,0.8-0.8c0.3-0.2,0.7-0.3,1.1-0.3c0.4,0,0.8,0.1,1.1,0.3c0.3,0.2,0.5,0.4,0.7,0.8c0.2,0.3,0.3,0.7,0.4,1
			c0.1,0.4,0.1,0.7,0.1,1.1H31.4z M38.5,27.9c-0.5,0.2-1,0.3-1.5,0.4c-0.5,0.1-1.2,0.2-1.8,0.2c-0.5,0-1-0.1-1.4-0.2
			c-0.4-0.1-0.8-0.3-1.2-0.6c-0.3-0.3-0.6-0.6-0.8-1c-0.2-0.4-0.3-0.9-0.3-1.5h8.2c0-0.2,0.1-0.4,0.1-0.7c0-0.2,0-0.5,0-0.8
			c0-1.5-0.2-2.7-0.7-3.7c-0.4-1-1.1-1.8-1.9-2.3c-0.8-0.5-1.8-0.8-2.9-0.8c-0.8,0-1.5,0.1-2.2,0.4c-0.7,0.2-1.2,0.6-1.7,1.1
			c-0.5,0.5-0.9,1-1.3,1.6c-0.3,0.6-0.6,1.3-0.8,2c-0.2,0.7-0.3,1.5-0.3,2.3c0,1.4,0.3,2.6,0.8,3.7c0.5,1,1.3,1.8,2.2,2.4
			c1,0.6,2.2,0.8,3.6,0.8c0.6,0,1.1,0,1.6-0.1c0.5-0.1,1-0.2,1.5-0.3c0.5-0.1,0.9-0.3,1.3-0.4L38.5,27.9z M26.5,22.6
			c0-1-0.1-1.8-0.3-2.5c-0.2-0.7-0.5-1.3-0.9-1.8c-0.4-0.5-0.8-0.8-1.3-1c-0.5-0.2-1.1-0.3-1.7-0.3c-0.5,0-1,0.1-1.5,0.2
			c-0.5,0.2-0.9,0.4-1.4,0.7c-0.4,0.3-0.8,0.8-1.2,1.3h0c-0.2-0.5-0.4-0.9-0.8-1.2c-0.3-0.3-0.7-0.6-1.2-0.8c-0.5-0.2-1-0.3-1.5-0.3
			c-0.5,0-1,0.1-1.4,0.2c-0.4,0.1-0.8,0.3-1.1,0.5c-0.3,0.2-0.6,0.4-0.8,0.7c-0.2,0.2-0.4,0.5-0.6,0.7h-0.1l-0.2-1.8H7.5
			c0,0.6,0,1.2,0.1,1.9c0,0.7,0,1.4,0,2.2v9.6h3.6v-8.2c0-0.5,0.1-0.9,0.2-1.2c0.1-0.3,0.3-0.6,0.5-0.9c0.2-0.2,0.4-0.4,0.7-0.5
			c0.3-0.1,0.5-0.2,0.8-0.2c0.5,0,0.8,0.1,1.1,0.4c0.3,0.3,0.5,0.6,0.6,1c0.1,0.4,0.2,0.9,0.2,1.5v8.1h3.6v-8.3
			c0-0.5,0.1-0.9,0.2-1.2c0.1-0.3,0.3-0.6,0.5-0.8c0.2-0.2,0.4-0.4,0.7-0.5c0.2-0.1,0.5-0.2,0.8-0.2c0.5,0,0.9,0.1,1.2,0.4
			c0.3,0.3,0.5,0.6,0.6,1.1c0.1,0.5,0.2,1.1,0.2,1.7v7.7h3.6V22.6z"/>
		<path class="st1" d="M135.6,27.9c-0.3,0.1-0.6,0.2-1,0.3c-0.4,0.1-0.8,0.1-1.2,0.1c-0.7,0-1.3-0.2-1.9-0.5c-0.5-0.3-1-0.8-1.3-1.4
			c-0.3-0.6-0.5-1.4-0.5-2.3c0-0.6,0.1-1.2,0.2-1.7c0.2-0.5,0.4-1,0.7-1.3c0.3-0.4,0.7-0.7,1.1-0.9c0.4-0.2,1-0.3,1.5-0.3
			c0.5,0,0.9,0,1.3,0.1c0.3,0.1,0.6,0.2,0.9,0.3l0.6-2.8c-0.2-0.1-0.4-0.2-0.7-0.2c-0.3-0.1-0.6-0.1-1-0.2c-0.4,0-0.7-0.1-1.1-0.1
			c-1.1,0-2.1,0.2-3,0.6c-0.9,0.4-1.6,0.9-2.2,1.5c-0.6,0.7-1.1,1.4-1.4,2.3c-0.3,0.9-0.5,1.8-0.5,2.9c0,1.1,0.2,2.1,0.5,2.9
			c0.3,0.9,0.8,1.6,1.3,2.2c0.6,0.6,1.3,1.1,2.1,1.4c0.8,0.3,1.7,0.5,2.7,0.5c0.5,0,0.9,0,1.4-0.1c0.4-0.1,0.8-0.1,1.1-0.2
			c0.3-0.1,0.6-0.2,0.8-0.3L135.6,27.9z M124.5,17.3h-3.6v13.7h3.6V17.3z M124.7,13.5c0-0.4-0.1-0.7-0.2-1c-0.2-0.3-0.4-0.5-0.7-0.7
			c-0.3-0.2-0.6-0.2-1-0.2c-0.4,0-0.7,0.1-1,0.2c-0.3,0.2-0.5,0.4-0.7,0.7c-0.2,0.3-0.2,0.6-0.3,1c0,0.4,0.1,0.7,0.2,1
			c0.2,0.3,0.4,0.5,0.7,0.7c0.3,0.2,0.6,0.3,1,0.3c0.4,0,0.7-0.1,1-0.2c0.3-0.2,0.5-0.4,0.7-0.7C124.6,14.3,124.7,13.9,124.7,13.5z
			 M115,25.2c0,0.6-0.1,1-0.2,1.4c-0.2,0.4-0.4,0.7-0.6,0.9c-0.2,0.2-0.5,0.4-0.8,0.4c-0.3,0.1-0.5,0.1-0.7,0.1
			c-0.6,0-1.1-0.2-1.5-0.5c-0.4-0.3-0.7-0.8-0.9-1.4c-0.2-0.6-0.3-1.3-0.3-2.1c0-0.9,0.1-1.6,0.3-2.2c0.2-0.6,0.5-1.1,1-1.5
			c0.4-0.3,0.9-0.5,1.4-0.5c0.4,0,0.8,0.1,1.1,0.3c0.3,0.2,0.6,0.5,0.8,0.9c0.2,0.4,0.3,0.9,0.3,1.5V25.2z M115.6,17.3l-0.1,1.6h0
			c-0.2-0.4-0.5-0.7-0.8-1c-0.3-0.3-0.7-0.5-1.1-0.7c-0.4-0.2-0.9-0.3-1.5-0.3c-0.8,0-1.5,0.2-2.2,0.5c-0.7,0.3-1.3,0.8-1.8,1.4
			c-0.5,0.6-0.9,1.4-1.2,2.3c-0.3,0.9-0.5,1.9-0.5,3c0,0.9,0.1,1.8,0.4,2.6c0.2,0.8,0.6,1.5,1.1,2.1c0.5,0.6,1,1.1,1.7,1.4
			c0.6,0.3,1.4,0.5,2.2,0.5c0.8,0,1.4-0.2,2-0.5c0.6-0.3,1.1-0.7,1.4-1.3h0v1c0,0.9-0.1,1.6-0.4,2.1c-0.3,0.6-0.7,1-1.2,1.2
			c-0.5,0.3-1.1,0.4-1.8,0.4c-0.5,0-0.9,0-1.4-0.1c-0.4-0.1-0.8-0.2-1.2-0.3c-0.4-0.1-0.7-0.3-1-0.4l-0.7,2.8
			c0.4,0.2,0.8,0.4,1.2,0.5c0.5,0.1,1,0.2,1.5,0.3c0.5,0.1,1,0.1,1.6,0.1c1.1,0,2-0.1,2.8-0.4c0.8-0.2,1.4-0.6,1.9-1
			c0.5-0.4,0.9-0.9,1.2-1.4c0.3-0.5,0.5-1.1,0.6-1.7c0.1-0.6,0.2-1.1,0.3-1.7c0-0.5,0.1-1,0-1.5v-7.7c0-0.6,0-1.2,0-1.7
			c0-0.5,0-0.9,0-1.3c0-0.4,0-0.8,0.1-1.1H115.6z M101.3,26.2c0,0.4-0.1,0.8-0.2,1.1c-0.2,0.3-0.3,0.5-0.6,0.7
			c-0.2,0.2-0.5,0.3-0.7,0.4c-0.3,0.1-0.5,0.1-0.7,0.1c-0.3,0-0.6-0.1-0.8-0.2c-0.3-0.1-0.5-0.3-0.6-0.6c-0.2-0.3-0.2-0.6-0.2-1.1
			c0-0.5,0.1-0.9,0.3-1.2c0.2-0.3,0.5-0.6,0.9-0.7c0.4-0.2,0.8-0.3,1.3-0.4c0.5-0.1,1-0.1,1.5-0.1V26.2z M104.8,22.7
			c0-0.8-0.1-1.5-0.2-2.1c-0.2-0.7-0.5-1.3-0.9-1.8c-0.4-0.5-1-0.9-1.7-1.3c-0.7-0.3-1.6-0.5-2.6-0.5c-0.7,0-1.4,0.1-2,0.2
			c-0.6,0.1-1.1,0.3-1.6,0.4c-0.5,0.2-0.8,0.4-1.2,0.5l0.7,2.4c0.4-0.3,1-0.5,1.5-0.7c0.6-0.2,1.2-0.3,1.8-0.3
			c0.7,0,1.2,0.1,1.5,0.3c0.4,0.2,0.6,0.5,0.7,0.8c0.1,0.4,0.2,0.8,0.2,1.2c-1.1,0-2.1,0.1-3,0.3c-0.9,0.2-1.7,0.5-2.4,0.9
			c-0.7,0.4-1.2,1-1.5,1.6c-0.4,0.6-0.6,1.4-0.6,2.3c0,0.6,0.1,1.1,0.3,1.6c0.2,0.5,0.5,0.9,0.8,1.3c0.4,0.4,0.8,0.7,1.3,0.9
			c0.5,0.2,1.1,0.3,1.7,0.3c0.5,0,1-0.1,1.4-0.2c0.5-0.1,0.9-0.3,1.2-0.6c0.4-0.3,0.7-0.6,1-0.9h0.1l0.2,1.4h3.3
			c0-0.3-0.1-0.6-0.1-0.9c0-0.3,0-0.7-0.1-1.1c0-0.4,0-0.8,0-1.2V22.7z M92.4,22.6c0-1-0.1-1.8-0.3-2.5c-0.2-0.7-0.5-1.3-0.9-1.8
			c-0.4-0.5-0.8-0.8-1.3-1c-0.5-0.2-1.1-0.3-1.7-0.3c-0.5,0-1,0.1-1.5,0.2c-0.5,0.2-0.9,0.4-1.4,0.7c-0.4,0.3-0.8,0.8-1.2,1.3h0
			c-0.2-0.5-0.4-0.9-0.8-1.2c-0.3-0.3-0.7-0.6-1.2-0.8c-0.5-0.2-1-0.3-1.5-0.3c-0.5,0-1,0.1-1.4,0.2c-0.4,0.1-0.8,0.3-1.1,0.5
			c-0.3,0.2-0.6,0.4-0.8,0.7c-0.2,0.2-0.4,0.5-0.6,0.7h-0.1l-0.2-1.8h-3.1c0,0.6,0,1.2,0.1,1.9c0,0.7,0,1.4,0,2.2v9.6h3.6v-8.2
			c0-0.5,0.1-0.9,0.2-1.2c0.1-0.3,0.3-0.6,0.5-0.9c0.2-0.2,0.4-0.4,0.7-0.5c0.3-0.1,0.5-0.2,0.8-0.2c0.5,0,0.8,0.1,1.1,0.4
			c0.3,0.3,0.5,0.6,0.6,1c0.1,0.4,0.2,0.9,0.2,1.5v8.1h3.6v-8.3c0-0.5,0.1-0.9,0.2-1.2c0.1-0.3,0.3-0.6,0.5-0.8
			c0.2-0.2,0.4-0.4,0.7-0.5c0.2-0.1,0.5-0.2,0.8-0.2c0.5,0,0.9,0.1,1.2,0.4c0.3,0.3,0.5,0.6,0.6,1.1c0.1,0.5,0.2,1.1,0.2,1.7v7.7
			h3.6V22.6z"/>
	</g>
	<g>
		<path class="st1" d="M7.5,45.6v-5h2.1c0.2,0,0.4,0,0.6,0.1c0.2,0.1,0.3,0.2,0.5,0.4c0.1,0.2,0.2,0.3,0.3,0.5
			c0.1,0.2,0.1,0.4,0.1,0.6c0,0.2,0,0.4-0.1,0.6c-0.1,0.2-0.2,0.4-0.3,0.5c-0.1,0.1-0.3,0.3-0.5,0.4c-0.2,0.1-0.4,0.1-0.6,0.1H8.1
			v1.8H7.5z M8.1,43.3h1.4c0.1,0,0.2,0,0.4-0.1c0.1-0.1,0.2-0.1,0.3-0.2c0.1-0.1,0.1-0.2,0.2-0.3c0-0.1,0.1-0.3,0.1-0.4
			c0-0.1,0-0.3-0.1-0.4c0-0.1-0.1-0.2-0.2-0.3c-0.1-0.1-0.2-0.2-0.3-0.2c-0.1-0.1-0.2-0.1-0.3-0.1H8.1V43.3z"/>
		<path class="st1" d="M12.1,45.6v-5h2.1c0.2,0,0.4,0,0.6,0.1c0.2,0.1,0.3,0.2,0.5,0.4c0.1,0.2,0.2,0.3,0.3,0.5
			c0.1,0.2,0.1,0.4,0.1,0.6c0,0.2,0,0.3-0.1,0.5c0,0.2-0.1,0.3-0.2,0.4c-0.1,0.1-0.2,0.2-0.3,0.3c-0.1,0.1-0.3,0.2-0.4,0.2l1.2,1.9
			h-0.7L14,43.9h-1.3v1.8H12.1z M12.7,43.3h1.5c0.1,0,0.2,0,0.4-0.1c0.1-0.1,0.2-0.1,0.3-0.2c0.1-0.1,0.1-0.2,0.2-0.3
			c0-0.1,0.1-0.3,0.1-0.4c0-0.1,0-0.3-0.1-0.4c0-0.1-0.1-0.2-0.2-0.3c-0.1-0.1-0.2-0.2-0.3-0.2c-0.1-0.1-0.2-0.1-0.3-0.1h-1.5V43.3z
			"/>
		<path class="st1" d="M18.9,45.7c-0.3,0-0.7-0.1-1-0.2c-0.3-0.1-0.5-0.3-0.7-0.6c-0.2-0.2-0.4-0.5-0.5-0.8
			c-0.1-0.3-0.2-0.6-0.2-0.9c0-0.3,0.1-0.6,0.2-1c0.1-0.3,0.3-0.6,0.5-0.8c0.2-0.2,0.5-0.4,0.7-0.6c0.3-0.1,0.6-0.2,0.9-0.2
			c0.4,0,0.7,0.1,1,0.2c0.3,0.1,0.5,0.3,0.7,0.6c0.2,0.2,0.4,0.5,0.5,0.8c0.1,0.3,0.2,0.6,0.2,0.9c0,0.3-0.1,0.6-0.2,1
			s-0.3,0.6-0.5,0.8c-0.2,0.2-0.5,0.4-0.7,0.6C19.6,45.6,19.3,45.7,18.9,45.7z M17.2,43.2c0,0.3,0,0.5,0.1,0.7
			c0.1,0.2,0.2,0.4,0.3,0.6c0.1,0.2,0.3,0.3,0.5,0.4c0.2,0.1,0.4,0.2,0.7,0.2c0.3,0,0.5-0.1,0.7-0.2c0.2-0.1,0.4-0.3,0.5-0.4
			c0.1-0.2,0.3-0.4,0.3-0.6c0.1-0.2,0.1-0.5,0.1-0.7c0-0.3,0-0.5-0.1-0.7c-0.1-0.2-0.2-0.4-0.4-0.6c-0.2-0.2-0.3-0.3-0.5-0.4
			c-0.2-0.1-0.4-0.2-0.7-0.2c-0.3,0-0.5,0.1-0.7,0.2c-0.2,0.1-0.4,0.3-0.5,0.4c-0.1,0.2-0.3,0.4-0.3,0.6
			C17.3,42.7,17.2,42.9,17.2,43.2z"/>
		<path class="st1" d="M22.4,45.6v-5h1.7c0.4,0,0.7,0.1,1,0.2c0.3,0.1,0.6,0.3,0.8,0.5c0.2,0.2,0.4,0.5,0.5,0.8
			c0.1,0.3,0.2,0.6,0.2,1c0,0.4-0.1,0.7-0.2,1c-0.1,0.3-0.3,0.6-0.5,0.8c-0.2,0.2-0.5,0.4-0.8,0.5c-0.3,0.1-0.6,0.2-1,0.2H22.4z
			 M25.9,43.1c0-0.3,0-0.5-0.1-0.8c-0.1-0.2-0.2-0.4-0.3-0.6c-0.2-0.2-0.3-0.3-0.6-0.4c-0.2-0.1-0.5-0.1-0.7-0.1H23v3.9h1.1
			c0.3,0,0.5,0,0.8-0.1c0.2-0.1,0.4-0.2,0.6-0.4c0.1-0.2,0.3-0.4,0.3-0.6C25.8,43.7,25.9,43.4,25.9,43.1z"/>
		<path class="st1" d="M29.7,45.1c0.3,0,0.5-0.1,0.7-0.2c0.2-0.1,0.3-0.3,0.5-0.4c0.1-0.2,0.2-0.4,0.2-0.6c0-0.2,0.1-0.5,0.1-0.7
			v-2.5h0.6v2.5c0,0.3,0,0.7-0.1,1c-0.1,0.3-0.2,0.6-0.4,0.8c-0.2,0.2-0.4,0.4-0.7,0.5c-0.3,0.1-0.6,0.2-1,0.2c-0.4,0-0.7-0.1-1-0.2
			c-0.3-0.1-0.5-0.3-0.7-0.6c-0.2-0.2-0.3-0.5-0.4-0.8c-0.1-0.3-0.1-0.6-0.1-0.9v-2.5h0.6v2.5c0,0.2,0,0.5,0.1,0.7
			c0,0.2,0.1,0.4,0.2,0.6c0.1,0.2,0.3,0.3,0.5,0.4C29.2,45.1,29.4,45.1,29.7,45.1z"/>
		<path class="st1" d="M32.8,43.1c0-0.3,0.1-0.6,0.2-0.9s0.3-0.6,0.5-0.8c0.2-0.2,0.5-0.4,0.7-0.6c0.3-0.1,0.6-0.2,1-0.2
			c0.4,0,0.8,0.1,1.1,0.3c0.3,0.2,0.6,0.5,0.7,0.8L36.5,42c-0.1-0.2-0.2-0.3-0.3-0.4c-0.1-0.1-0.2-0.2-0.3-0.3
			c-0.1-0.1-0.3-0.1-0.4-0.1c-0.1,0-0.3,0-0.4,0c-0.3,0-0.5,0.1-0.7,0.2c-0.2,0.1-0.4,0.3-0.5,0.4c-0.1,0.2-0.3,0.4-0.3,0.6
			c-0.1,0.2-0.1,0.5-0.1,0.7c0,0.3,0,0.5,0.1,0.7c0.1,0.2,0.2,0.4,0.4,0.6s0.3,0.3,0.5,0.4c0.2,0.1,0.4,0.2,0.7,0.2
			c0.1,0,0.3,0,0.4,0c0.1,0,0.3-0.1,0.4-0.2c0.1-0.1,0.2-0.2,0.4-0.3c0.1-0.1,0.2-0.2,0.3-0.4l0.5,0.3c-0.1,0.2-0.2,0.4-0.3,0.5
			c-0.1,0.1-0.3,0.3-0.5,0.4c-0.2,0.1-0.4,0.2-0.6,0.2c-0.2,0.1-0.4,0.1-0.6,0.1c-0.3,0-0.7-0.1-0.9-0.2c-0.3-0.1-0.5-0.3-0.7-0.6
			c-0.2-0.2-0.4-0.5-0.5-0.8C32.9,43.7,32.8,43.4,32.8,43.1z"/>
		<path class="st1" d="M41.7,41.2H40v4.4h-0.6v-4.4h-1.7v-0.6h4.1V41.2z"/>
		<path class="st1" d="M47.9,45.1v0.6h-3.4v-5h3.3v0.6h-2.7v1.6h2.3v0.5h-2.3v1.7H47.9z"/>
		<path class="st1" d="M49.6,41.8v3.8h-0.6v-5h0.5l3.1,3.9v-3.9h0.6v5h-0.5L49.6,41.8z"/>
		<path class="st1" d="M58.1,45c-0.4,0.5-0.9,0.7-1.5,0.7c-0.3,0-0.6-0.1-0.9-0.2c-0.3-0.1-0.5-0.3-0.7-0.6
			c-0.2-0.2-0.4-0.5-0.5-0.8c-0.1-0.3-0.2-0.6-0.2-0.9c0-0.3,0.1-0.7,0.2-1c0.1-0.3,0.3-0.6,0.5-0.8c0.2-0.2,0.5-0.4,0.7-0.5
			c0.3-0.1,0.6-0.2,0.9-0.2c0.5,0,0.9,0.1,1.2,0.3c0.3,0.2,0.5,0.5,0.7,0.8L58,42.1c-0.1-0.3-0.3-0.5-0.6-0.6
			c-0.2-0.1-0.5-0.2-0.8-0.2c-0.3,0-0.5,0.1-0.7,0.2c-0.2,0.1-0.4,0.3-0.5,0.4c-0.1,0.2-0.3,0.4-0.3,0.6c-0.1,0.2-0.1,0.5-0.1,0.7
			c0,0.3,0,0.5,0.1,0.8c0.1,0.2,0.2,0.4,0.4,0.6c0.2,0.2,0.3,0.3,0.5,0.4c0.2,0.1,0.4,0.2,0.7,0.2c0.5,0,1-0.3,1.5-0.8v-0.7H57v-0.5
			h1.6v2.5h-0.5V45z"/>
		<path class="st1" d="M59.8,45.6v-5h0.6v5H59.8z"/>
		<path class="st1" d="M62.5,41.8v3.8h-0.6v-5h0.5l3.1,3.9v-3.9H66v5h-0.5L62.5,41.8z"/>
		<path class="st1" d="M70.8,45.1v0.6h-3.4v-5h3.3v0.6h-2.7v1.6h2.3v0.5h-2.3v1.7H70.8z"/>
		<path class="st1" d="M75.3,45.1v0.6h-3.4v-5h3.3v0.6h-2.7v1.6h2.3v0.5h-2.3v1.7H75.3z"/>
		<path class="st1" d="M76.4,45.6v-5h2.1c0.2,0,0.4,0,0.6,0.1c0.2,0.1,0.3,0.2,0.5,0.4s0.2,0.3,0.3,0.5c0.1,0.2,0.1,0.4,0.1,0.6
			c0,0.2,0,0.3-0.1,0.5c0,0.2-0.1,0.3-0.2,0.4c-0.1,0.1-0.2,0.2-0.3,0.3c-0.1,0.1-0.3,0.2-0.4,0.2l1.2,1.9h-0.7l-1.1-1.8H77v1.8
			H76.4z M77,43.3h1.5c0.1,0,0.2,0,0.4-0.1c0.1-0.1,0.2-0.1,0.3-0.2c0.1-0.1,0.1-0.2,0.2-0.3c0-0.1,0.1-0.3,0.1-0.4
			c0-0.1,0-0.3-0.1-0.4c0-0.1-0.1-0.2-0.2-0.3c-0.1-0.1-0.2-0.2-0.3-0.2c-0.1-0.1-0.2-0.1-0.3-0.1H77V43.3z"/>
		<path class="st1" d="M81.2,45.6v-5h0.6v5H81.2z"/>
		<path class="st1" d="M83.9,41.8v3.8h-0.6v-5h0.5l3.1,3.9v-3.9h0.6v5h-0.5L83.9,41.8z"/>
		<path class="st1" d="M92.4,45c-0.4,0.5-0.9,0.7-1.5,0.7c-0.3,0-0.6-0.1-0.9-0.2c-0.3-0.1-0.5-0.3-0.7-0.6
			c-0.2-0.2-0.4-0.5-0.5-0.8c-0.1-0.3-0.2-0.6-0.2-0.9c0-0.3,0.1-0.7,0.2-1s0.3-0.6,0.5-0.8c0.2-0.2,0.5-0.4,0.7-0.5
			c0.3-0.1,0.6-0.2,0.9-0.2c0.5,0,0.9,0.1,1.2,0.3c0.3,0.2,0.5,0.5,0.7,0.8l-0.5,0.3c-0.1-0.3-0.3-0.5-0.6-0.6
			c-0.2-0.1-0.5-0.2-0.8-0.2c-0.3,0-0.5,0.1-0.7,0.2c-0.2,0.1-0.4,0.3-0.5,0.4c-0.1,0.2-0.3,0.4-0.3,0.6c-0.1,0.2-0.1,0.5-0.1,0.7
			c0,0.3,0,0.5,0.1,0.8c0.1,0.2,0.2,0.4,0.4,0.6c0.2,0.2,0.3,0.3,0.5,0.4c0.2,0.1,0.4,0.2,0.7,0.2c0.5,0,1-0.3,1.5-0.8v-0.7h-1.1
			v-0.5h1.6v2.5h-0.5V45z"/>
		<path class="st1" d="M99.1,41.7c-0.1-0.1-0.1-0.1-0.2-0.2c-0.1-0.1-0.2-0.1-0.3-0.2c-0.1,0-0.2-0.1-0.4-0.1c-0.1,0-0.3,0-0.4,0
			c-0.4,0-0.7,0.1-0.9,0.2c-0.2,0.1-0.3,0.3-0.3,0.6c0,0.1,0,0.2,0.1,0.3s0.1,0.2,0.2,0.2c0.1,0.1,0.2,0.1,0.4,0.2
			c0.2,0,0.4,0.1,0.6,0.1c0.3,0.1,0.5,0.1,0.7,0.2c0.2,0.1,0.4,0.2,0.5,0.3c0.1,0.1,0.3,0.2,0.3,0.4c0.1,0.2,0.1,0.3,0.1,0.6
			c0,0.2,0,0.4-0.1,0.6c-0.1,0.2-0.2,0.3-0.4,0.4c-0.2,0.1-0.4,0.2-0.6,0.3c-0.2,0.1-0.5,0.1-0.7,0.1c-0.4,0-0.7-0.1-1.1-0.2
			c-0.3-0.1-0.7-0.3-0.9-0.5l0.3-0.5c0.1,0.1,0.2,0.2,0.3,0.2c0.1,0.1,0.3,0.2,0.4,0.2c0.2,0.1,0.3,0.1,0.5,0.2
			c0.2,0,0.4,0.1,0.5,0.1c0.4,0,0.6-0.1,0.8-0.2c0.2-0.1,0.3-0.3,0.3-0.6c0-0.1,0-0.3-0.1-0.4c-0.1-0.1-0.2-0.2-0.3-0.2
			c-0.1-0.1-0.3-0.1-0.5-0.2c-0.2-0.1-0.4-0.1-0.6-0.2c-0.3-0.1-0.5-0.1-0.7-0.2c-0.2-0.1-0.4-0.2-0.5-0.3c-0.1-0.1-0.2-0.2-0.3-0.4
			c-0.1-0.1-0.1-0.3-0.1-0.5c0-0.2,0-0.4,0.1-0.6c0.1-0.2,0.2-0.3,0.4-0.5c0.2-0.1,0.3-0.2,0.6-0.3c0.2-0.1,0.5-0.1,0.7-0.1
			c0.3,0,0.6,0.1,0.9,0.2c0.3,0.1,0.5,0.2,0.7,0.4L99.1,41.7z"/>
		<path class="st1" d="M100.6,45.6v-5h2.1c0.2,0,0.4,0,0.6,0.1c0.2,0.1,0.3,0.2,0.5,0.4c0.1,0.2,0.2,0.3,0.3,0.5
			c0.1,0.2,0.1,0.4,0.1,0.6c0,0.2,0,0.4-0.1,0.6c-0.1,0.2-0.2,0.4-0.3,0.5s-0.3,0.3-0.5,0.4c-0.2,0.1-0.4,0.1-0.6,0.1h-1.5v1.8
			H100.6z M101.3,43.3h1.4c0.1,0,0.2,0,0.4-0.1s0.2-0.1,0.3-0.2c0.1-0.1,0.1-0.2,0.2-0.3c0-0.1,0.1-0.3,0.1-0.4c0-0.1,0-0.3-0.1-0.4
			c0-0.1-0.1-0.2-0.2-0.3c-0.1-0.1-0.2-0.2-0.3-0.2c-0.1-0.1-0.2-0.1-0.3-0.1h-1.4V43.3z"/>
		<path class="st1" d="M108.6,45.1v0.6h-3.4v-5h3.3v0.6h-2.7v1.6h2.3v0.5h-2.3v1.7H108.6z"/>
		<path class="st1" d="M109.3,43.1c0-0.3,0.1-0.6,0.2-0.9s0.3-0.6,0.5-0.8c0.2-0.2,0.5-0.4,0.7-0.6c0.3-0.1,0.6-0.2,1-0.2
			c0.4,0,0.8,0.1,1.1,0.3c0.3,0.2,0.6,0.5,0.7,0.8L113,42c-0.1-0.2-0.2-0.3-0.3-0.4c-0.1-0.1-0.2-0.2-0.3-0.3
			c-0.1-0.1-0.3-0.1-0.4-0.1c-0.1,0-0.3,0-0.4,0c-0.3,0-0.5,0.1-0.7,0.2c-0.2,0.1-0.4,0.3-0.5,0.4c-0.1,0.2-0.3,0.4-0.3,0.6
			c-0.1,0.2-0.1,0.5-0.1,0.7c0,0.3,0,0.5,0.1,0.7c0.1,0.2,0.2,0.4,0.4,0.6c0.2,0.2,0.3,0.3,0.5,0.4c0.2,0.1,0.4,0.2,0.7,0.2
			c0.1,0,0.3,0,0.4,0c0.1,0,0.3-0.1,0.4-0.2c0.1-0.1,0.2-0.2,0.4-0.3c0.1-0.1,0.2-0.2,0.3-0.4l0.5,0.3c-0.1,0.2-0.2,0.4-0.3,0.5
			c-0.1,0.1-0.3,0.3-0.5,0.4c-0.2,0.1-0.4,0.2-0.6,0.2c-0.2,0.1-0.4,0.1-0.6,0.1c-0.3,0-0.7-0.1-0.9-0.2c-0.3-0.1-0.5-0.3-0.7-0.6
			c-0.2-0.2-0.4-0.5-0.5-0.8C109.3,43.7,109.3,43.4,109.3,43.1z"/>
		<path class="st1" d="M114.6,45.6v-5h0.6v5H114.6z"/>
		<path class="st1" d="M118.2,40.7h0.5l2,5H120l-0.6-1.5h-2.1l-0.6,1.5h-0.7L118.2,40.7z M119.3,43.7l-0.9-2.3l-0.9,2.3H119.3z"/>
		<path class="st1" d="M121.6,45.6v-5h0.6v4.4h2.8v0.6H121.6z"/>
		<path class="st1" d="M125.9,45.6v-5h0.6v5H125.9z"/>
		<path class="st1" d="M130.9,41.7c-0.1-0.1-0.1-0.1-0.2-0.2c-0.1-0.1-0.2-0.1-0.3-0.2c-0.1,0-0.2-0.1-0.4-0.1c-0.1,0-0.3,0-0.4,0
			c-0.4,0-0.7,0.1-0.9,0.2c-0.2,0.1-0.3,0.3-0.3,0.6c0,0.1,0,0.2,0.1,0.3c0.1,0.1,0.1,0.2,0.2,0.2c0.1,0.1,0.2,0.1,0.4,0.2
			c0.2,0,0.4,0.1,0.6,0.1c0.3,0.1,0.5,0.1,0.7,0.2c0.2,0.1,0.4,0.2,0.5,0.3c0.1,0.1,0.3,0.2,0.3,0.4c0.1,0.2,0.1,0.3,0.1,0.6
			c0,0.2,0,0.4-0.1,0.6c-0.1,0.2-0.2,0.3-0.4,0.4c-0.2,0.1-0.4,0.2-0.6,0.3c-0.2,0.1-0.5,0.1-0.7,0.1c-0.4,0-0.7-0.1-1.1-0.2
			c-0.3-0.1-0.7-0.3-0.9-0.5l0.3-0.5c0.1,0.1,0.2,0.2,0.3,0.2c0.1,0.1,0.3,0.2,0.4,0.2c0.2,0.1,0.3,0.1,0.5,0.2
			c0.2,0,0.4,0.1,0.5,0.1c0.4,0,0.6-0.1,0.8-0.2c0.2-0.1,0.3-0.3,0.3-0.6c0-0.1,0-0.3-0.1-0.4s-0.2-0.2-0.3-0.2
			c-0.1-0.1-0.3-0.1-0.5-0.2c-0.2-0.1-0.4-0.1-0.6-0.2c-0.3-0.1-0.5-0.1-0.7-0.2c-0.2-0.1-0.4-0.2-0.5-0.3c-0.1-0.1-0.2-0.2-0.3-0.4
			c-0.1-0.1-0.1-0.3-0.1-0.5c0-0.2,0-0.4,0.1-0.6c0.1-0.2,0.2-0.3,0.4-0.5c0.2-0.1,0.3-0.2,0.6-0.3c0.2-0.1,0.5-0.1,0.7-0.1
			c0.3,0,0.6,0.1,0.9,0.2c0.3,0.1,0.5,0.2,0.7,0.4L130.9,41.7z"/>
		<path class="st1" d="M136.1,41.2h-1.7v4.4h-0.6v-4.4H132v-0.6h4.1V41.2z"/>
	</g>
</g>
</svg>
